ffmpeg started on 2025-06-04 at 19:36:50
Report written to "D:\Convert\FFMetrics\reports\ssim_report-6.txt"
Log level: 32
Command line:
ffmpeg -hide_banner -nostdin -i "G:\\\xc0\xed\xe8\xec\xe5\\\xce\xed\xe3\xee\xe8\xed\xe3\xe8\\!_36_\xce\xf1\xe5\xed\xfc_2024\\DreamCast\\\xc2\xfb \xef\xf0\xe0\xe2\xe4\xe0 \xe6\xe5\xed\xe8\xf2\xe5\xf1\xfc\\[DC] Kekkon Surutte Hontou Desuka - 08_Telegram_HEVC.mkv" -i "G:\\\xc0\xed\xe8\xec\xe5\\\xce\xed\xe3\xee\xe8\xed\xe3\xe8\\!_36_\xce\xf1\xe5\xed\xfc_2024\\DreamCast\\\xc2\xfb \xef\xf0\xe0\xe2\xe4\xe0 \xe6\xe5\xed\xe8\xf2\xe5\xf1\xfc\\[DC] Kekkon Surutte Hontou Desuka - 08_Telegram.mp4" -lavfi "[0:v]settb=AVTB,setpts=PTS-STARTPTS,format=pix_fmts=yuv420p10,fps=24000/1001,scale=1920:1080:flags=bicubic[main];[1:v]settb=AVTB,setpts=PTS-STARTPTS,format=pix_fmts=yuv420p,fps=24000/1001,scale=1920:1080:flags=bicubic[ref];[main][ref]ssim=eof_action=endall:stats_file='D\\:/Convert/FFMetrics/logs/ssim_logfile-6.txt'" -f null -
Input #0, matroska,webm, from 'G:\Аниме\Онгоинги\!_36_Осень_2024\DreamCast\Вы правда женитесь\[DC] Kekkon Surutte Hontou Desuka - 08_Telegram_HEVC.mkv':
  Metadata:
    COMPATIBLE_BRANDS: isomiso2avc1mp41
    MAJOR_BRAND     : isom
    MINOR_VERSION   : 512
    ENCODER         : Lavf61.7.100
  Duration: 00:23:47.67, start: -0.021000, bitrate: 1304 kb/s
  Stream #0:0: Video: hevc (Main 10), yuv420p10le(tv, bt709, progressive), 1920x1080 [SAR 1:1 DAR 16:9], 23.98 fps, 23.98 tbr, 1k tbn (default)
      Metadata:
        HANDLER_NAME    : VideoHandler
        VENDOR_ID       : [0][0][0][0]
        ENCODER         : Lavc61.19.100 libx265
        BPS             : 1107851
        DURATION        : 00:23:46.508708333
        NUMBER_OF_FRAMES: 34202
        NUMBER_OF_BYTES : 197544939
        _STATISTICS_WRITING_APP: mkvpropedit v66.0.0 ('Josie') 64-bit
        _STATISTICS_WRITING_DATE_UTC: 2025-05-30 08:32:53
        _STATISTICS_TAGS: BPS DURATION NUMBER_OF_FRAMES NUMBER_OF_BYTES
  Stream #0:1: Audio: aac (LC), 48000 Hz, stereo, fltp (default)
      Metadata:
        HANDLER_NAME    : SoundHandler
        VENDOR_ID       : [0][0][0][0]
        ENCODER         : Lavc61.19.100 aac
        BPS             : 193288
        DURATION        : 00:23:47.669000000
        NUMBER_OF_FRAMES: 66923
        NUMBER_OF_BYTES : 34494066
        _STATISTICS_WRITING_APP: mkvpropedit v66.0.0 ('Josie') 64-bit
        _STATISTICS_WRITING_DATE_UTC: 2025-05-30 08:32:53
        _STATISTICS_TAGS: BPS DURATION NUMBER_OF_FRAMES NUMBER_OF_BYTES
Input #1, mov,mp4,m4a,3gp,3g2,mj2, from 'G:\Аниме\Онгоинги\!_36_Осень_2024\DreamCast\Вы правда женитесь\[DC] Kekkon Surutte Hontou Desuka - 08_Telegram.mp4':
  Metadata:
    major_brand     : isom
    minor_version   : 512
    compatible_brands: isomiso2avc1mp41
    encoder         : Lavf61.1.100
  Duration: 00:23:47.61, start: 0.000000, bitrate: 3757 kb/s
  Stream #1:0[0x1](und): Video: h264 (High) (avc1 / 0x31637661), yuv420p(tv, bt709, progressive), 1920x1080 [SAR 1:1 DAR 16:9], 3612 kb/s, 23.98 fps, 23.98 tbr, 24k tbn (default)
      Metadata:
        handler_name    : VideoHandler
        vendor_id       : [0][0][0][0]
        encoder         : Lavc61.3.100 h264_qsv
  Stream #1:1[0x2](und): Audio: aac (HE-AACv2) (mp4a / 0x6134706D), 48000 Hz, stereo, fltp, 144 kb/s (default)
      Metadata:
        handler_name    : SoundHandler
        vendor_id       : [0][0][0][0]
Stream mapping:
  Stream #0:0 (hevc) -> settb:default
  Stream #1:0 (h264) -> settb:default
  ssim:default -> Stream #0:0 (wrapped_avframe)
  Stream #0:1 -> #0:1 (aac (native) -> pcm_s16le (native))
Output #0, null, to 'pipe:':
  Metadata:
    COMPATIBLE_BRANDS: isomiso2avc1mp41
    MAJOR_BRAND     : isom
    MINOR_VERSION   : 512
    encoder         : Lavf61.7.100
  Stream #0:0: Video: wrapped_avframe, yuv420p10le(tv, bt709, progressive), 1920x1080 [SAR 1:1 DAR 16:9], q=2-31, 200 kb/s, 23.98 fps, 23.98 tbn
      Metadata:
        encoder         : Lavc61.19.100 wrapped_avframe
  Stream #0:1: Audio: pcm_s16le, 48000 Hz, stereo, s16, 1536 kb/s (default)
      Metadata:
        HANDLER_NAME    : SoundHandler
        VENDOR_ID       : [0][0][0][0]
        _STATISTICS_TAGS: BPS DURATION NUMBER_OF_FRAMES NUMBER_OF_BYTES
        BPS             : 193288
        DURATION        : 00:23:47.669000000
        NUMBER_OF_FRAMES: 66923
        NUMBER_OF_BYTES : 34494066
        _STATISTICS_WRITING_APP: mkvpropedit v66.0.0 ('Josie') 64-bit
        _STATISTICS_WRITING_DATE_UTC: 2025-05-30 08:32:53
        encoder         : Lavc61.19.100 pcm_s16le
frame=  183 fps=0.0 q=-0.0 size=N/A time=00:00:07.63 bitrate=N/A speed=14.7x    frame=  392 fps=378 q=-0.0 size=N/A time=00:00:16.34 bitrate=N/A speed=15.8x    frame=  618 fps=399 q=-0.0 size=N/A time=00:00:25.77 bitrate=N/A speed=16.7x    frame=  847 fps=409 q=-0.0 size=N/A time=00:00:35.32 bitrate=N/A speed=  17x    frame= 1047 fps=405 q=-0.0 size=N/A time=00:00:43.66 bitrate=N/A speed=16.9x    frame= 1230 fps=396 q=-0.0 size=N/A time=00:00:51.30 bitrate=N/A speed=16.5x    frame= 1428 fps=395 q=-0.0 size=N/A time=00:00:59.55 bitrate=N/A speed=16.5x    frame= 1649 fps=400 q=-0.0 size=N/A time=00:01:08.77 bitrate=N/A speed=16.7x    frame= 1875 fps=403 q=-0.0 size=N/A time=00:01:18.20 bitrate=N/A speed=16.8x    frame= 2105 fps=408 q=-0.0 size=N/A time=00:01:27.79 bitrate=N/A speed=  17x    frame= 2313 fps=408 q=-0.0 size=N/A time=00:01:36.47 bitrate=N/A speed=  17x    frame= 2564 fps=414 q=-0.0 size=N/A time=00:01:46.98 bitrate=N/A speed=17.3x    frame= 2819 fps=420 q=-0.0 size=N/A time=00:01:57.57 bitrate=N/A speed=17.5x    frame= 3073 fps=425 q=-0.0 size=N/A time=00:02:08.16 bitrate=N/A speed=17.7x    frame= 3321 fps=429 q=-0.0 size=N/A time=00:02:18.51 bitrate=N/A speed=17.9x    frame= 3583 fps=434 q=-0.0 size=N/A time=00:02:29.44 bitrate=N/A speed=18.1x    frame= 3806 fps=434 q=-0.0 size=N/A time=00:02:38.74 bitrate=N/A speed=18.1x    frame= 4035 fps=435 q=-0.0 size=N/A time=00:02:48.29 bitrate=N/A speed=18.1x    frame= 4254 fps=434 q=-0.0 size=N/A time=00:02:57.42 bitrate=N/A speed=18.1x    frame= 4512 fps=438 q=-0.0 size=N/A time=00:03:08.18 bitrate=N/A speed=18.3x    frame= 4764 fps=440 q=-0.0 size=N/A time=00:03:18.69 bitrate=N/A speed=18.3x    frame= 4999 fps=441 q=-0.0 size=N/A time=00:03:28.49 bitrate=N/A speed=18.4x    frame= 5232 fps=441 q=-0.0 size=N/A time=00:03:38.21 bitrate=N/A speed=18.4x    frame= 5461 fps=441 q=-0.0 size=N/A time=00:03:47.76 bitrate=N/A speed=18.4x    frame= 5714 fps=443 q=-0.0 size=N/A time=00:03:58.32 bitrate=N/A speed=18.5x    frame= 5972 fps=445 q=-0.0 size=N/A time=00:04:09.08 bitrate=N/A speed=18.6x    frame= 6189 fps=444 q=-0.0 size=N/A time=00:04:18.13 bitrate=N/A speed=18.5x    frame= 6431 fps=445 q=-0.0 size=N/A time=00:04:28.22 bitrate=N/A speed=18.6x    frame= 6670 fps=446 q=-0.0 size=N/A time=00:04:38.19 bitrate=N/A speed=18.6x    frame= 6909 fps=447 q=-0.0 size=N/A time=00:04:48.16 bitrate=N/A speed=18.6x    frame= 7173 fps=448 q=-0.0 size=N/A time=00:04:59.17 bitrate=N/A speed=18.7x    frame= 7421 fps=450 q=-0.0 size=N/A time=00:05:09.51 bitrate=N/A speed=18.8x    frame= 7676 fps=451 q=-0.0 size=N/A time=00:05:20.15 bitrate=N/A speed=18.8x    frame= 7921 fps=452 q=-0.0 size=N/A time=00:05:30.37 bitrate=N/A speed=18.8x    frame= 8111 fps=449 q=-0.0 size=N/A time=00:05:38.29 bitrate=N/A speed=18.7x    frame= 8333 fps=449 q=-0.0 size=N/A time=00:05:47.55 bitrate=N/A speed=18.7x    frame= 8573 fps=449 q=-0.0 size=N/A time=00:05:57.56 bitrate=N/A speed=18.7x    frame= 8839 fps=451 q=-0.0 size=N/A time=00:06:08.65 bitrate=N/A speed=18.8x    frame= 9075 fps=451 q=-0.0 size=N/A time=00:06:18.50 bitrate=N/A speed=18.8x    frame= 9325 fps=452 q=-0.0 size=N/A time=00:06:28.93 bitrate=N/A speed=18.8x    frame= 9507 fps=450 q=-0.0 size=N/A time=00:06:36.52 bitrate=N/A speed=18.8x    frame= 9700 fps=448 q=-0.0 size=N/A time=00:06:44.57 bitrate=N/A speed=18.7x    frame= 9977 fps=450 q=-0.0 size=N/A time=00:06:56.12 bitrate=N/A speed=18.8x    frame=10185 fps=449 q=-0.0 size=N/A time=00:07:04.79 bitrate=N/A speed=18.7x    frame=10423 fps=449 q=-0.0 size=N/A time=00:07:14.72 bitrate=N/A speed=18.7x    frame=10688 fps=451 q=-0.0 size=N/A time=00:07:25.77 bitrate=N/A speed=18.8x    frame=10931 fps=451 q=-0.0 size=N/A time=00:07:35.91 bitrate=N/A speed=18.8x    frame=11207 fps=453 q=-0.0 size=N/A time=00:07:47.42 bitrate=N/A speed=18.9x    frame=11442 fps=453 q=-0.0 size=N/A time=00:07:57.22 bitrate=N/A speed=18.9x    frame=11680 fps=453 q=-0.0 size=N/A time=00:08:07.15 bitrate=N/A speed=18.9x    frame=11880 fps=452 q=-0.0 size=N/A time=00:08:15.49 bitrate=N/A speed=18.8x    frame=12131 fps=452 q=-0.0 size=N/A time=00:08:25.96 bitrate=N/A speed=18.9x    frame=12310 fps=450 q=-0.0 size=N/A time=00:08:33.42 bitrate=N/A speed=18.8x    frame=12550 fps=451 q=-0.0 size=N/A time=00:08:43.43 bitrate=N/A speed=18.8x    frame=12765 fps=450 q=-0.0 size=N/A time=00:08:52.40 bitrate=N/A speed=18.8x    frame=13018 fps=451 q=-0.0 size=N/A time=00:09:02.95 bitrate=N/A speed=18.8x    frame=13217 fps=450 q=-0.0 size=N/A time=00:09:11.25 bitrate=N/A speed=18.8x    frame=13430 fps=449 q=-0.0 size=N/A time=00:09:20.14 bitrate=N/A speed=18.7x    frame=13641 fps=448 q=-0.0 size=N/A time=00:09:28.94 bitrate=N/A speed=18.7x    frame=13874 fps=448 q=-0.0 size=N/A time=00:09:38.66 bitrate=N/A speed=18.7x    frame=14145 fps=450 q=-0.0 size=N/A time=00:09:49.96 bitrate=N/A speed=18.8x    frame=14382 fps=450 q=-0.0 size=N/A time=00:09:59.84 bitrate=N/A speed=18.8x    frame=14623 fps=450 q=-0.0 size=N/A time=00:10:09.90 bitrate=N/A speed=18.8x    frame=14843 fps=450 q=-0.0 size=N/A time=00:10:19.07 bitrate=N/A speed=18.8x    frame=15105 fps=451 q=-0.0 size=N/A time=00:10:30.00 bitrate=N/A speed=18.8x    frame=15365 fps=451 q=-0.0 size=N/A time=00:10:40.84 bitrate=N/A speed=18.8x    frame=15573 fps=451 q=-0.0 size=N/A time=00:10:49.52 bitrate=N/A speed=18.8x    frame=15803 fps=451 q=-0.0 size=N/A time=00:10:59.11 bitrate=N/A speed=18.8x    frame=16038 fps=451 q=-0.0 size=N/A time=00:11:08.91 bitrate=N/A speed=18.8x    frame=16307 fps=452 q=-0.0 size=N/A time=00:11:20.13 bitrate=N/A speed=18.8x    frame=16550 fps=452 q=-0.0 size=N/A time=00:11:30.27 bitrate=N/A speed=18.8x    frame=16791 fps=452 q=-0.0 size=N/A time=00:11:40.32 bitrate=N/A speed=18.9x    frame=17055 fps=453 q=-0.0 size=N/A time=00:11:51.33 bitrate=N/A speed=18.9x    frame=17278 fps=452 q=-0.0 size=N/A time=00:12:00.63 bitrate=N/A speed=18.9x    frame=17510 fps=453 q=-0.0 size=N/A time=00:12:10.31 bitrate=N/A speed=18.9x    frame=17747 fps=453 q=-0.0 size=N/A time=00:12:20.19 bitrate=N/A speed=18.9x    frame=18004 fps=453 q=-0.0 size=N/A time=00:12:30.91 bitrate=N/A speed=18.9x    frame=18260 fps=454 q=-0.0 size=N/A time=00:12:41.59 bitrate=N/A speed=18.9x    frame=18508 fps=454 q=-0.0 size=N/A time=00:12:51.93 bitrate=N/A speed=18.9x    frame=18774 fps=455 q=-0.0 size=N/A time=00:13:03.03 bitrate=N/A speed=  19x    frame=19022 fps=455 q=-0.0 size=N/A time=00:13:13.37 bitrate=N/A speed=  19x    frame=19298 fps=456 q=-0.0 size=N/A time=00:13:24.88 bitrate=N/A speed=  19x    frame=19574 fps=457 q=-0.0 size=N/A time=00:13:36.39 bitrate=N/A speed=19.1x    frame=19824 fps=458 q=-0.0 size=N/A time=00:13:46.82 bitrate=N/A speed=19.1x    frame=20080 fps=458 q=-0.0 size=N/A time=00:13:57.50 bitrate=N/A speed=19.1x    frame=20337 fps=458 q=-0.0 size=N/A time=00:14:08.22 bitrate=N/A speed=19.1x    frame=20593 fps=459 q=-0.0 size=N/A time=00:14:18.89 bitrate=N/A speed=19.1x    frame=20853 fps=459 q=-0.0 size=N/A time=00:14:29.74 bitrate=N/A speed=19.2x    frame=21066 fps=459 q=-0.0 size=N/A time=00:14:38.62 bitrate=N/A speed=19.1x    frame=21295 fps=459 q=-0.0 size=N/A time=00:14:48.17 bitrate=N/A speed=19.1x    frame=21518 fps=458 q=-0.0 size=N/A time=00:14:57.47 bitrate=N/A speed=19.1x    frame=21785 fps=459 q=-0.0 size=N/A time=00:15:08.61 bitrate=N/A speed=19.1x    frame=22014 fps=459 q=-0.0 size=N/A time=00:15:18.16 bitrate=N/A speed=19.1x    frame=22156 fps=457 q=-0.0 size=N/A time=00:15:24.08 bitrate=N/A speed=19.1x    frame=22328 fps=456 q=-0.0 size=N/A time=00:15:31.26 bitrate=N/A speed=  19x    frame=22542 fps=455 q=-0.0 size=N/A time=00:15:40.18 bitrate=N/A speed=  19x    frame=22800 fps=456 q=-0.0 size=N/A time=00:15:50.95 bitrate=N/A speed=  19x    frame=23049 fps=456 q=-0.0 size=N/A time=00:16:01.33 bitrate=N/A speed=  19x    frame=23300 fps=456 q=-0.0 size=N/A time=00:16:11.80 bitrate=N/A speed=  19x    frame=23535 fps=456 q=-0.0 size=N/A time=00:16:21.60 bitrate=N/A speed=  19x    frame=23779 fps=456 q=-0.0 size=N/A time=00:16:31.78 bitrate=N/A speed=  19x    frame=24024 fps=457 q=-0.0 size=N/A time=00:16:42.00 bitrate=N/A speed=  19x    frame=24283 fps=457 q=-0.0 size=N/A time=00:16:52.80 bitrate=N/A speed=19.1x    frame=24526 fps=457 q=-0.0 size=N/A time=00:17:02.93 bitrate=N/A speed=19.1x    frame=24766 fps=457 q=-0.0 size=N/A time=00:17:12.94 bitrate=N/A speed=19.1x    frame=25004 fps=457 q=-0.0 size=N/A time=00:17:22.87 bitrate=N/A speed=19.1x    frame=25271 fps=458 q=-0.0 size=N/A time=00:17:34.01 bitrate=N/A speed=19.1x    frame=25491 fps=457 q=-0.0 size=N/A time=00:17:43.18 bitrate=N/A speed=19.1x    frame=25679 fps=457 q=-0.0 size=N/A time=00:17:51.02 bitrate=N/A speed=  19x    frame=25883 fps=456 q=-0.0 size=N/A time=00:17:59.53 bitrate=N/A speed=  19x    frame=26125 fps=456 q=-0.0 size=N/A time=00:18:09.63 bitrate=N/A speed=  19x    frame=26360 fps=456 q=-0.0 size=N/A time=00:18:19.43 bitrate=N/A speed=  19x    frame=26613 fps=457 q=-0.0 size=N/A time=00:18:29.98 bitrate=N/A speed=  19x    frame=26877 fps=457 q=-0.0 size=N/A time=00:18:40.99 bitrate=N/A speed=19.1x    frame=27127 fps=457 q=-0.0 size=N/A time=00:18:51.42 bitrate=N/A speed=19.1x    frame=27342 fps=457 q=-0.0 size=N/A time=00:19:00.38 bitrate=N/A speed=  19x    frame=27573 fps=457 q=-0.0 size=N/A time=00:19:10.02 bitrate=N/A speed=  19x    frame=27799 fps=456 q=-0.0 size=N/A time=00:19:19.44 bitrate=N/A speed=  19x    frame=28034 fps=457 q=-0.0 size=N/A time=00:19:29.25 bitrate=N/A speed=  19x    frame=28300 fps=457 q=-0.0 size=N/A time=00:19:40.34 bitrate=N/A speed=19.1x    frame=28555 fps=457 q=-0.0 size=N/A time=00:19:50.98 bitrate=N/A speed=19.1x    frame=28813 fps=458 q=-0.0 size=N/A time=00:20:01.74 bitrate=N/A speed=19.1x    frame=28962 fps=456 q=-0.0 size=N/A time=00:20:07.95 bitrate=N/A speed=  19x    frame=29101 fps=455 q=-0.0 size=N/A time=00:20:13.75 bitrate=N/A speed=  19x    frame=29336 fps=455 q=-0.0 size=N/A time=00:20:23.55 bitrate=N/A speed=  19x    frame=29567 fps=455 q=-0.0 size=N/A time=00:20:33.19 bitrate=N/A speed=  19x    frame=29746 fps=454 q=-0.0 size=N/A time=00:20:40.65 bitrate=N/A speed=18.9x    frame=30007 fps=454 q=-0.0 size=N/A time=00:20:51.54 bitrate=N/A speed=18.9x    frame=30267 fps=455 q=-0.0 size=N/A time=00:21:02.38 bitrate=N/A speed=  19x    frame=30496 fps=455 q=-0.0 size=N/A time=00:21:11.93 bitrate=N/A speed=  19x    frame=30744 fps=455 q=-0.0 size=N/A time=00:21:22.28 bitrate=N/A speed=  19x    frame=30982 fps=455 q=-0.0 size=N/A time=00:21:32.20 bitrate=N/A speed=  19x    frame=31197 fps=455 q=-0.0 size=N/A time=00:21:41.17 bitrate=N/A speed=  19x    frame=31408 fps=454 q=-0.0 size=N/A time=00:21:49.97 bitrate=N/A speed=18.9x    frame=31643 fps=454 q=-0.0 size=N/A time=00:21:59.77 bitrate=N/A speed=18.9x    frame=31895 fps=454 q=-0.0 size=N/A time=00:22:10.28 bitrate=N/A speed=  19x    frame=32111 fps=454 q=-0.0 size=N/A time=00:22:19.29 bitrate=N/A speed=18.9x    frame=32241 fps=453 q=-0.0 size=N/A time=00:22:24.71 bitrate=N/A speed=18.9x    frame=32451 fps=452 q=-0.0 size=N/A time=00:22:33.47 bitrate=N/A speed=18.9x    frame=32625 fps=452 q=-0.0 size=N/A time=00:22:40.73 bitrate=N/A speed=18.8x    frame=32791 fps=451 q=-0.0 size=N/A time=00:22:47.65 bitrate=N/A speed=18.8x    frame=32958 fps=450 q=-0.0 size=N/A time=00:22:54.62 bitrate=N/A speed=18.8x    frame=33126 fps=449 q=-0.0 size=N/A time=00:23:01.63 bitrate=N/A speed=18.7x    frame=33289 fps=448 q=-0.0 size=N/A time=00:23:08.42 bitrate=N/A speed=18.7x    frame=33483 fps=448 q=-0.0 size=N/A time=00:23:16.52 bitrate=N/A speed=18.7x    frame=33665 fps=447 q=-0.0 size=N/A time=00:23:24.11 bitrate=N/A speed=18.6x    frame=33837 fps=446 q=-0.0 size=N/A time=00:23:31.28 bitrate=N/A speed=18.6x    frame=34012 fps=445 q=-0.0 size=N/A time=00:23:38.58 bitrate=N/A speed=18.6x    [Parsed_ssim_10 @ 0000023295460500] SSIM Y:0.994050 (22.254579) U:0.994700 (22.756921) V:0.995045 (23.049729) All:0.994324 (22.459502)
[out#0/null @ 000002328838f080] video:14696KiB audio:267692KiB subtitle:0KiB other streams:0KiB global headers:0KiB muxing overhead: unknown
frame=34202 fps=445 q=-0.0 Lsize=N/A time=00:23:46.50 bitrate=N/A speed=18.6x    
